<svg xmlns="http://www.w3.org/2000/svg" width="400" height="400" version="1.1" viewBox="0 0 400 400" xml:space="preserve">
    <g transform="matrix(-.36777 0 0 -.34606 196.59 207.95)" fill="none" stroke="#000" stroke-opacity=".70355" stroke-width="1.4016"><path d="m523.75 0-0.08 9.14-0.24 9.14-0.4 9.13-0.55 9.13-0.69 9.11-0.83 9.11-0.96 9.09-1.1 9.08-1.23 9.06-1.35 9.05-1.48 9.03-1.59 9.02-1.71 9.01-1.83 8.99-1.94 8.97-2.05 8.95-2.15 8.95-2.27 8.92-2.38 8.91-2.48 8.9-2.59 8.88-2.7 8.87-2.81 8.85-2.92 8.83-3.03 8.82-3.15 8.8-3.26 8.79-3.37 8.76-3.5 8.74-3.62 8.72-3.74 8.7-3.87 8.67-3.99 8.64-4.14 8.6-4.26 8.57-4.41 8.53-4.55 8.49-4.69 8.44-4.84 8.39-4.99 8.33-5.14 8.27-5.3 8.2-5.45 8.13-5.62 8.05-5.77 7.97-5.94 7.87-6.1 7.78-6.27 7.68-6.43 7.56-6.6 7.45-6.76 7.33-6.92 7.2-7.09 7.07-7.25 6.93-7.41 6.78-7.57 6.62-7.72 6.47-7.87 6.31-8.03 6.13-8.17 5.97-8.31 5.78-8.45 5.6-8.58 5.42-8.71 5.23-8.83 5.03-8.96 4.84-9.06 4.64-9.18 4.44-9.28 4.24-9.37 4.03-9.47 3.83-9.56 3.62-9.63 3.42-9.71 3.21-9.78 3.01-9.85 2.8-9.9 2.6-9.96 2.4-10.01 2.19-10.05 1.99-10.09 1.8-10.12 1.59-10.16 1.4-10.18 1.21-10.2 1.02-10.22 0.83-10.23 0.64-10.25 0.45-10.25 0.27-10.25 0.09-10.25-0.09-10.25-0.27-10.25-0.46-10.23-0.65-10.22-0.84-10.2-1.03-10.18-1.22-10.15-1.42-10.12-1.62-10.08-1.81-10.05-2.02-10-2.2-9.95-2.41-9.9-2.6-9.85-2.79-9.78-2.99-9.72-3.17-9.65-3.37-9.58-3.55-9.5-3.74-9.42-3.92-9.34-4.1-9.25-4.28-9.16-4.45-9.07-4.63-8.97-4.79-8.87-4.96-8.77-5.13-8.67-5.28-8.55-5.45-8.45-5.59-8.33-5.75-8.21-5.9-8.1-6.05-7.98-6.18-7.85-6.33-7.73-6.46-7.61-6.6-7.47-6.72-7.35-6.86-7.21-6.98-7.07-7.1-6.94-7.22-6.8-7.33-6.66-7.45-6.52-7.56-6.37-7.66-6.24-7.77-6.08-7.87-5.94-7.96-5.79-8.07-5.64-8.15-5.49-8.24-5.33-8.32-5.19-8.41-5.03-8.49-4.88-8.57-4.72-8.63-4.56-8.71-4.41-8.78-4.26-8.84-4.09-8.9-3.94-8.95-3.78-9.02-3.62-9.07-3.46-9.11-3.31-9.16-3.14-9.21-2.99-9.25-2.83-9.28-2.67-9.32-2.52-9.36-2.35-9.38-2.2-9.41-2.04-9.44-1.88-9.46-1.73-9.47-1.57-9.5-1.41-9.51-1.25-9.52-1.11-9.53-0.94-9.54-0.79-9.55-0.63-9.55-0.48-9.55-0.33-9.54-0.17-9.55-0.01-9.53 0.14-9.53 0.29-9.52 0.45-9.51 0.6-9.49 0.75-9.47 0.89-9.45 1.04-9.44 1.18-9.41 1.32-9.38 1.45-9.37 1.6-9.33 1.73-9.31 1.86-9.28 2-9.24 2.13-9.22 2.26-9.18 2.4-9.15 2.53-9.11 2.66-9.07 2.8-9.04 2.93-8.99 3.06-8.95 3.2-8.91 3.34-8.85 3.47-8.81 3.61-8.76 3.74-8.7 3.89-8.65 4.02-8.58 4.17-8.53 4.3-8.46 4.45-8.39 4.58-8.32 4.73-8.25 4.87-8.17 5.01-8.09 5.16-8.01 5.29-7.92 5.44-7.83 5.57-7.74 5.72-7.64 5.85-7.54 6-7.43 6.13-7.33 6.26-7.23 6.4-7.1 6.54-6.99 6.66-6.88 6.79-6.75 6.92-6.62 7.05-6.49 7.17-6.37 7.29-6.23 7.4-6.09 7.53-5.95 7.63-5.82 7.75-5.66 7.85-5.52 7.96-5.37 8.06-5.22 8.16-5.07 8.25-4.91 8.35-4.75 8.43-4.59 8.53-4.44 8.6-4.27 8.68-4.1 8.76-3.94 8.83-3.78 8.9-3.6 8.97-3.44 9.02-3.26 9.09-3.09 9.14-2.92 9.19-2.75 9.24-2.57 9.28-2.39 9.33-2.22 9.36-2.04 9.4-1.86 9.42-1.69 9.45-1.51 9.48-1.32 9.49-1.15 9.51-0.97 9.52-0.8 9.53-0.61 9.54-0.43 9.53-0.25 9.53-0.08 9.53 0.11 9.52 0.28 9.5 0.46 9.49 0.64 9.47 0.81 9.45 0.99 9.42 1.17 9.38 1.34 9.36 1.52 9.31 1.69 9.28 1.87 9.23 2.03 9.18 2.21 9.14 2.37 9.08 2.53 9.03 2.7 8.96 2.86 8.91 3.02 8.84 3.17 8.77 3.32 8.71 3.48 8.64 3.62 8.56 3.77 8.49 3.91 8.42 4.05 8.33 4.18 8.26 4.32 8.18 4.45 8.09 4.58 8.02 4.71 7.92 4.83 7.85 4.95 7.75 5.07 7.67 5.18 7.58 5.31 7.49 5.41 7.4 5.53 7.3 5.63 7.22 5.75 7.11 5.85 7.03 5.96 6.92 6.06 6.83 6.17 6.72 6.27 6.63 6.37 6.52 6.47 6.42 6.56 6.31 6.67 6.2 6.76 6.09 6.86 5.97 6.96 5.86 7.04 5.75 7.15 5.63 7.23 5.5 7.32 5.38 7.41 5.26 7.5 5.13 7.59 5 7.67 4.87 7.75 4.74 7.84 4.6 7.91 4.46 7.99 4.32 8.06 4.19 8.14 4.04 8.21 3.9 8.28 3.76 8.34 3.6 8.4 3.47 8.47 3.31 8.52 3.17 8.58 3.02 8.63 2.87 8.69 2.71 8.73 2.57 8.77 2.42 8.82 2.26 8.86 2.11 8.89 1.97 8.93 1.8 8.96 1.66 8.99 1.5 9.01 1.35 9.04 1.19 9.07 1.04 9.08 0.88 9.1 0.73 9.11 0.57 9.12 0.4 9.13 0.25 9.14z"/><path d="m508.01 0-0.6 8.86-0.75 8.83-0.9 8.82-1.05 8.78-1.18 8.76-1.32 8.73-1.43 8.71-1.55 8.67-1.65 8.65-1.76 8.62-1.86 8.59-1.94 8.56-2.03 8.54-2.11 8.52-2.19 8.5-2.26 8.48-2.33 8.47-2.39 8.45-2.46 8.44-2.53 8.44-2.59 8.43-2.65 8.43-2.72 8.42-2.78 8.43-2.84 8.44-2.92 8.43-2.99 8.44-3.06 8.45-3.14 8.46-3.23 8.46-3.31 8.46-3.41 8.47-3.52 8.47-3.61 8.47-3.74 8.46-3.85 8.45-3.98 8.44-4.11 8.41-4.25 8.39-4.4 8.36-4.56 8.32-4.71 8.26-4.88 8.21-5.05 8.15-5.23 8.06-5.4 7.98-5.59 7.89-5.78 7.78-5.97 7.66-6.16 7.54-6.35 7.4-6.54 7.25-6.74 7.09-6.93 6.93-7.12 6.75-7.3 6.56-7.48 6.37-7.67 6.17-7.84 5.96-8 5.74-8.17 5.52-8.32 5.3-8.46 5.07-8.61 4.83-8.74 4.59-8.87 4.36-8.98 4.12-9.08 3.88-9.19 3.65-9.27 3.4-9.36 3.18-9.43 2.94-9.5 2.71-9.55 2.5-9.6 2.27-9.65 2.05-9.68 1.85-9.71 1.64-9.74 1.45-9.76 1.25-9.77 1.06-9.77 0.88-9.78 0.71-9.79 0.52-9.78 0.36-9.77 0.2-9.77 0.03-9.75-0.12-9.74-0.28-9.73-0.43-9.71-0.59-9.69-0.75-9.66-0.92-9.64-1.08-9.61-1.27-9.57-1.44-9.54-1.62-9.49-1.81-9.45-1.99-9.4-2.17-9.35-2.36-9.29-2.53-9.23-2.71-9.17-2.89-9.1-3.05-9.03-3.23-8.95-3.39-8.88-3.55-8.81-3.71-8.72-3.86-8.64-4.01-8.56-4.16-8.48-4.3-8.38-4.44-8.3-4.57-8.21-4.71-8.12-4.83-8.03-4.96-7.94-5.09-7.84-5.2-7.75-5.33-7.64-5.44-7.56-5.56-7.45-5.67-7.35-5.78-7.24-5.89-7.15-6.01-7.03-6.11-6.93-6.21-6.82-6.32-6.71-6.43-6.59-6.53-6.48-6.63-6.36-6.73-6.24-6.83-6.12-6.93-5.99-7.02-5.87-7.12-5.74-7.21-5.61-7.3-5.48-7.39-5.35-7.47-5.22-7.56-5.07-7.64-4.94-7.72-4.8-7.8-4.67-7.88-4.52-7.94-4.37-8.02-4.24-8.08-4.09-8.15-3.95-8.21-3.8-8.27-3.66-8.32-3.51-8.38-3.37-8.44-3.22-8.48-3.08-8.52-2.92-8.57-2.78-8.61-2.64-8.65-2.48-8.68-2.34-8.72-2.2-8.75-2.04-8.78-1.9-8.8-1.75-8.83-1.61-8.85-1.46-8.86-1.31-8.89-1.16-8.89-1.02-8.91-0.87-8.92-0.73-8.93-0.57-8.93-0.44-8.94-0.28-8.94-0.14-8.93 0.01-8.93 0.15-8.93 0.3-8.92 0.44-8.91 0.57-8.89 0.7-8.89 0.81-8.87 0.94-8.86 1.05-8.84 1.17-8.83 1.27-8.81 1.38-8.8 1.49-8.79 1.59-8.77 1.7-8.75 1.82-8.74 1.92-8.72 2.03-8.71 2.15-8.68 2.26-8.67 2.38-8.64 2.5-8.62 2.62-8.6 2.75-8.57 2.89-8.54 3.01-8.51 3.15-8.47 3.28-8.43 3.43-8.39 3.57-8.34 3.72-8.29 3.86-8.24 4.02-8.18 4.16-8.12 4.32-8.05 4.46-7.98 4.63-7.9 4.78-7.82 4.93-7.74 5.08-7.66 5.24-7.55 5.4-7.46 5.54-7.36 5.7-7.26 5.84-7.14 5.99-7.03 6.14-6.92 6.28-6.79 6.42-6.67 6.56-6.54 6.7-6.42 6.82-6.28 6.96-6.14 7.08-6 7.2-5.87 7.33-5.72 7.44-5.57 7.55-5.43 7.66-5.28 7.76-5.13 7.86-4.97 7.97-4.82 8.05-4.67 8.15-4.51 8.23-4.35 8.32-4.19 8.39-4.03 8.47-3.88 8.55-3.71 8.61-3.55 8.67-3.38 8.74-3.23 8.8-3.05 8.85-2.9 8.9-2.73 8.95-2.56 8.99-2.4 9.03-2.23 9.08-2.06 9.1-1.9 9.14-1.72 9.17-1.56 9.19-1.39 9.21-1.22 9.23-1.05 9.24-0.89 9.26-0.71 9.27-0.54 9.27-0.37 9.27-0.2 9.27-0.03 9.27 0.14 9.26 0.31 9.25 0.49 9.23 0.67 9.21 0.84 9.19 1.03 9.17 1.21 9.13 1.39 9.1 1.58 9.05 1.76 9.02 1.94 8.97 2.12 8.91 2.3 8.86 2.47 8.81 2.65 8.74 2.81 8.68 2.97 8.62 3.13 8.55 3.29 8.47 3.43 8.41 3.58 8.34 3.72 8.26 3.86 8.19 3.99 8.11 4.11 8.04 4.23 7.97 4.35 7.89 4.47 7.82 4.57 7.75 4.68 7.67 4.78 7.6 4.89 7.52 4.98 7.45 5.08 7.38 5.18 7.31 5.27 7.24 5.36 7.16 5.45 7.08 5.55 7.01 5.64 6.94 5.73 6.85 5.83 6.78 5.92 6.69 6.02 6.6 6.12 6.52 6.21 6.42 6.32 6.32 6.42 6.23 6.52 6.11 6.62 6.01 6.73 5.9 6.83 5.77 6.94 5.65 7.04 5.52 7.16 5.38 7.25 5.25 7.36 5.1 7.47 4.95 7.57 4.79 7.67 4.64 7.76 4.47 7.87 4.31 7.95 4.14 8.04 3.96 8.13 3.79 8.21 3.62 8.29 3.43 8.36 3.26 8.43 3.07 8.49 2.9 8.56 2.72 8.6 2.53 8.66 2.36 8.7 2.18 8.74 2.01 8.78 1.84 8.81 1.66 8.83 1.5 8.86 1.33 8.88 1.17 8.89 1.01 8.9 0.84 8.91 0.69 8.92 0.53 8.92 0.37 8.92 0.21 8.92 0.06 8.9-0.1 8.91-0.27 8.89z"/><path d="m493.06 0-1.13 8.59-1.28 8.54-1.43 8.51-1.57 8.46-1.7 8.42-1.82 8.36-1.93 8.33-2.04 8.27-2.14 8.23-2.22 8.19-2.3 8.14-2.37 8.1-2.44 8.07-2.49 8.03-2.54 8-2.58 7.97-2.62 7.96-2.65 7.93-2.67 7.93-2.7 7.92-2.71 7.92-2.74 7.92-2.75 7.93-2.76 7.95-2.79 7.96-2.8 7.99-2.83 8.02-2.85 8.04-2.88 8.08-2.93 8.11-2.97 8.15-3.02 8.18-3.08 8.22-3.16 8.24-3.23 8.28-3.33 8.3-3.44 8.31-3.54 8.33-3.67 8.33-3.81 8.32-3.96 8.31-4.12 8.28-4.28 8.24-4.47 8.18-4.66 8.12-4.85 8.04-5.06 7.94-5.27 7.83-5.49 7.69-5.71 7.56-5.94 7.39-6.16 7.23-6.38 7.03-6.61 6.82-6.84 6.61-7.05 6.38-7.27 6.13-7.47 5.88-7.67 5.62-7.87 5.34-8.05 5.07-8.21 4.79-8.38 4.5-8.53 4.2-8.66 3.92-8.79 3.63-8.9 3.35-9 3.06-9.09 2.78-9.16 2.51-9.23 2.25-9.27 2-9.31 1.74-9.35 1.51-9.36 1.29-9.37 1.07-9.38 0.87-9.37 0.68-9.36 0.5-9.35 0.34-9.32 0.17-9.3 0.02-9.27-0.11-9.25-0.25-9.21-0.38-9.18-0.5-9.14-0.62-9.11-0.74-9.08-0.86-9.04-0.99-9-1.11-8.97-1.26-8.92-1.41-8.88-1.58-8.84-1.73-8.78-1.91-8.72-2.08-8.67-2.25-8.6-2.41-8.54-2.58-8.47-2.74-8.4-2.89-8.33-3.04-8.25-3.18-8.17-3.32-8.1-3.44-8.03-3.56-7.95-3.67-7.88-3.77-7.8-3.87-7.73-3.97-7.66-4.05-7.6-4.13-7.52-4.21-7.46-4.29-7.4-4.36-7.34-4.43-7.27-4.49-7.22-4.57-7.15-4.63-7.1-4.7-7.04-4.78-6.97-4.84-6.92-4.92-6.85-5-6.79-5.07-6.72-5.16-6.66-5.24-6.58-5.32-6.51-5.42-6.42-5.51-6.35-5.6-6.26-5.7-6.17-5.79-6.08-5.9-5.99-5.99-5.88-6.1-5.77-6.19-5.67-6.3-5.56-6.39-5.44-6.5-5.33-6.59-5.21-6.69-5.08-6.79-4.96-6.88-4.83-6.96-4.7-7.06-4.58-7.14-4.44-7.23-4.31-7.3-4.17-7.38-4.04-7.46-3.91-7.53-3.77-7.59-3.63-7.67-3.49-7.72-3.36-7.79-3.22-7.84-3.08-7.9-2.94-7.95-2.8-8-2.67-8.05-2.52-8.09-2.37-8.14-2.24-8.17-2.09-8.22-1.95-8.24-1.8-8.28-1.66-8.31-1.51-8.34-1.36-8.36-1.22-8.38-1.06-8.41-0.92-8.42-0.76-8.43-0.62-8.45-0.46-8.45-0.32-8.46-0.16-8.47v-8.46l0.14-8.46 0.28-8.46 0.41-8.45 0.52-8.44 0.63-8.44 0.73-8.43 0.82-8.43 0.91-8.42 1-8.41 1.08-8.41 1.17-8.41 1.26-8.41 1.34-8.41 1.44-8.4 1.53-8.4 1.63-8.4 1.73-8.39 1.83-8.39 1.95-8.39 2.07-8.37 2.19-8.36 2.32-8.34 2.45-8.32 2.59-8.3 2.73-8.28 2.88-8.24 3.04-8.2 3.19-8.16 3.34-8.11 3.51-8.06 3.68-8 3.84-7.94 4.01-7.86 4.18-7.79 4.35-7.71 4.51-7.63 4.69-7.53 4.86-7.43 5.03-7.34 5.19-7.22 5.35-7.12 5.51-7 5.68-6.88 5.83-6.75 5.98-6.63 6.12-6.5 6.28-6.37 6.41-6.23 6.55-6.09 6.68-5.95 6.8-5.81 6.93-5.67 7.05-5.52 7.16-5.37 7.27-5.23 7.37-5.08 7.48-4.93 7.57-4.78 7.66-4.63 7.75-4.48 7.84-4.33 7.91-4.18 7.99-4.03 8.06-3.88 8.13-3.72 8.2-3.58 8.25-3.43 8.31-3.28 8.37-3.13 8.42-2.97 8.47-2.83 8.51-2.68 8.56-2.54 8.59-2.38 8.64-2.23 8.66-2.09 8.7-1.94 8.73-1.79 8.75-1.64 8.78-1.49 8.8-1.35 8.82-1.2 8.83-1.05 8.85-0.9 8.87-0.75 8.87-0.6 8.87-0.46 8.89-0.3 8.88-0.16 8.89-0.01 8.88 0.15 8.88 0.31 8.87 0.48 8.86 0.65 8.84 0.85 8.81 1.03 8.79 1.23 8.76 1.43 8.71 1.62 8.68 1.81 8.63 2.01 8.57 2.2 8.52 2.38 8.46 2.56 8.4 2.73 8.34 2.9 8.26 3.06 8.2 3.22 8.13 3.35 8.06 3.5 8 3.62 7.92 3.74 7.86 3.85 7.79 3.96 7.73 4.06 7.67 4.15 7.61 4.23 7.55 4.32 7.51 4.39 7.45 4.45 7.41 4.53 7.37 4.59 7.33 4.66 7.28 4.71 7.25 4.78 7.22 4.84 7.18 4.91 7.15 4.97 7.11 5.04 7.08 5.12 7.04 5.19 6.99 5.28 6.95 5.36 6.9 5.46 6.84 5.56 6.78 5.67 6.7 5.77 6.63 5.89 6.54 6.02 6.44 6.14 6.33 6.27 6.22 6.41 6.08 6.55 5.95 6.69 5.79 6.83 5.64 6.98 5.46 7.12 5.27 7.26 5.09 7.41 4.88 7.54 4.67 7.68 4.46 7.8 4.23 7.94 4.01 8.05 3.77 8.16 3.54 8.26 3.3 8.36 3.06 8.45 2.82 8.53 2.59 8.59 2.35 8.66 2.13 8.71 1.91 8.76 1.68 8.79 1.48 8.82 1.27 8.83 1.08 8.85 0.88 8.86 0.71 8.86 0.54 8.85 0.36 8.84 0.21 8.83 0.06 8.82-0.09 8.79-0.24 8.77-0.38 8.74-0.52 8.72-0.67 8.69-0.82 8.66z"/><path d="m472.91 0-1.48 8.23-1.62 8.18-1.76 8.12-1.89 8.07-2.01 8.01-2.12 7.95-2.23 7.9-2.33 7.83-2.42 7.78-2.49 7.73-2.56 7.67-2.62 7.62-2.66 7.58-2.71 7.54-2.73 7.49-2.76 7.47-2.77 7.44-2.78 7.42-2.77 7.41-2.78 7.4-2.77 7.4-2.75 7.41-2.74 7.42-2.73 7.45-2.71 7.47-2.7 7.5-2.69 7.54-2.69 7.59-2.68 7.64-2.68 7.69-2.7 7.74-2.71 7.8-2.75 7.86-2.79 7.91-2.84 7.97-2.9 8.01-2.98 8.06-3.08 8.1-3.18 8.12-3.3 8.15-3.44 8.15-3.59 8.14-3.76 8.12-3.93 8.09-4.13 8.03-4.34 7.95-4.55 7.87-4.77 7.75-5.01 7.61-5.25 7.47-5.49 7.29-5.75 7.1-5.99 6.89-6.24 6.65-6.49 6.41-6.73 6.15-6.97 5.86-7.19 5.57-7.42 5.27-7.63 4.96-7.82 4.63-8 4.31-8.18 3.98-8.33 3.65-8.47 3.31-8.6 2.99-8.7 2.67-8.8 2.34-8.87 2.04-8.94 1.74-8.98 1.46-9.01 1.18-9.03 0.92-9.03 0.68-9.03 0.46-9.02 0.25-8.98 0.05-8.96-0.11-8.91-0.28-8.87-0.41-8.82-0.54-8.77-0.65-8.72-0.75-8.66-0.83-8.61-0.92-8.55-1-8.51-1.08-8.45-1.15-8.4-1.25-8.36-1.35-8.31-1.47-8.25-1.61-8.2-1.76-8.15-1.93-8.08-2.09-8.01-2.27-7.94-2.43-7.87-2.6-7.8-2.76-7.71-2.91-7.63-3.05-7.55-3.17-7.47-3.29-7.38-3.39-7.31-3.48-7.24-3.56-7.16-3.61-7.1-3.67-7.03-3.71-6.98-3.75-6.93-3.76-6.88-3.78-6.84-3.79-6.81-3.8-6.78-3.8-6.76-3.8-6.73-3.81-6.72-3.81-6.71-3.82-6.69-3.83-6.69-3.86-6.67-3.88-6.67-3.91-6.65-3.95-6.63-4-6.62-4.07-6.59-4.12-6.56-4.2-6.53-4.29-6.49-4.38-6.44-4.47-6.38-4.58-6.33-4.69-6.25-4.81-6.18-4.92-6.1-5.05-6.01-5.17-5.91-5.29-5.82-5.42-5.71-5.55-5.6-5.67-5.49-5.8-5.38-5.92-5.25-6.03-5.14-6.15-5.01-6.26-4.88-6.37-4.76-6.47-4.64-6.57-4.5-6.67-4.38-6.77-4.25-6.85-4.12-6.95-3.99-7.02-3.85-7.11-3.73-7.18-3.59-7.26-3.46-7.33-3.32-7.4-3.18-7.47-3.05-7.53-2.9-7.59-2.76-7.65-2.62-7.71-2.47-7.76-2.32-7.81-2.17-7.86-2.02-7.9-1.86-7.95-1.71-7.99-1.55-8.02-1.39-8.05-1.23-8.08-1.06-8.1-0.91-8.13-0.74-8.15-0.58-8.16-0.41-8.17-0.25-8.18-0.08-8.18 0.08-8.18 0.23-8.18 0.35-8.18 0.45-8.17 0.56-8.16 0.64-8.17 0.73-8.15 0.8-8.16 0.88-8.16 0.95-8.16 1.02-8.16 1.11-8.17 1.19-8.17 1.28-8.17 1.37-8.17 1.47-8.17 1.58-8.17 1.7-8.16 1.81-8.16 1.95-8.14 2.08-8.13 2.22-8.11 2.36-8.08 2.53-8.05 2.68-8.02 2.84-7.97 3.01-7.92 3.19-7.87 3.36-7.81 3.53-7.73 3.72-7.67 3.89-7.58 4.08-7.5 4.25-7.4 4.43-7.3 4.61-7.2 4.78-7.1 4.95-6.97 5.13-6.86 5.28-6.73 5.45-6.61 5.61-6.48 5.76-6.34 5.9-6.2 6.05-6.07 6.18-5.93 6.31-5.78 6.44-5.65 6.56-5.49 6.68-5.36 6.78-5.21 6.88-5.06 6.99-4.92 7.08-4.77 7.16-4.63 7.25-4.48 7.33-4.34 7.4-4.2 7.48-4.06 7.53-3.92 7.61-3.78 7.66-3.64 7.71-3.5 7.77-3.36 7.82-3.23 7.86-3.1 7.9-2.96 7.95-2.83 7.98-2.69 8.02-2.56 8.05-2.44 8.08-2.3 8.11-2.17 8.13-2.05 8.16-1.92 8.18-1.79 8.2-1.66 8.22-1.54 8.24-1.42 8.25-1.29 8.27-1.16 8.28-1.04 8.29-0.92 8.3-0.8 8.31-0.67 8.31-0.55 8.32-0.43 8.33-0.3 8.32-0.18 8.33-0.06 8.33 0.06 8.32 0.22 8.32 0.37 8.31 0.54 8.3 0.74 8.27 0.92 8.25 1.13 8.21 1.33 8.18 1.53 8.13 1.73 8.09 1.93 8.03 2.12 7.98 2.3 7.91 2.47 7.85 2.65 7.79 2.8 7.73 2.95 7.66 3.08 7.59 3.21 7.53 3.33 7.47 3.42 7.42 3.53 7.36 3.61 7.31 3.68 7.26 3.74 7.22 3.81 7.19 3.85 7.16 3.89 7.14 3.94 7.12 3.96 7.11 3.99 7.1 4.01 7.1 4.04 7.11 4.06 7.12 4.08 7.13 4.11 7.14 4.14 7.16 4.18 7.18 4.22 7.2 4.26 7.21 4.32 7.22 4.39 7.22 4.46 7.22 4.55 7.21 4.64 7.18 4.76 7.15 4.88 7.11 5.01 7.04 5.15 6.96 5.31 6.87 5.47 6.75 5.64 6.62 5.83 6.47 6.01 6.29 6.2 6.11 6.4 5.9 6.6 5.68 6.79 5.44 6.98 5.17 7.18 4.91 7.36 4.63 7.54 4.33 7.71 4.04 7.87 3.73 8.02 3.42 8.16 3.1 8.29 2.8 8.39 2.49 8.49 2.19 8.57 1.9 8.65 1.62 8.69 1.34 8.74 1.09 8.76 0.84 8.79 0.61 8.78 0.4 8.78 0.21 8.77 0.02 8.74-0.14 8.71-0.3 8.68-0.42 8.64-0.56 8.6-0.67 8.56-0.77 8.5-0.88 8.47-0.99 8.42-1.09 8.37-1.21 8.32z"/><path d="m448.35 0-1.69 7.8-1.81 7.73-1.95 7.68-2.06 7.62-2.19 7.55-2.29 7.48-2.39 7.43-2.47 7.35-2.55 7.3-2.61 7.24-2.65 7.18-2.7 7.12-2.71 7.09-2.73 7.04-2.73 7.01-2.72 6.98-2.7 6.95-2.68 6.95-2.66 6.94-2.62 6.94-2.59 6.96-2.56 6.96-2.53 6.99-2.5 7.02-2.48 7.05-2.46 7.08-2.46 7.13-2.44 7.17-2.45 7.22-2.47 7.26-2.48 7.31-2.5 7.37-2.54 7.42-2.59 7.46-2.64 7.52-2.71 7.56-2.78 7.6-2.87 7.64-2.96 7.67-3.08 7.69-3.2 7.7-3.35 7.7-3.49 7.69-3.65 7.66-3.83 7.62-4.02 7.55-4.22 7.48-4.43 7.38-4.65 7.26-4.87 7.13-5.1 6.98-5.34 6.79-5.57 6.61-5.81 6.39-6.05 6.16-6.28 5.91-6.51 5.64-6.74 5.37-6.95 5.07-7.15 4.77-7.36 4.45-7.54 4.12-7.72 3.79-7.88 3.45-8.03 3.1-8.16 2.75-8.27 2.4-8.39 2.05-8.47 1.7-8.54 1.36-8.59 1.03-8.63 0.71-8.65 0.41-8.65 0.13-8.63-0.12-8.61-0.36-8.58-0.56-8.52-0.75-8.46-0.89-8.4-1.03-8.32-1.12-8.25-1.21-8.18-1.26-8.1-1.31-8.03-1.35-7.96-1.37-7.9-1.4-7.83-1.43-7.77-1.48-7.72-1.56-7.66-1.66-7.6-1.79-7.55-1.95-7.47-2.11-7.41-2.27-7.33-2.44-7.26-2.6-7.17-2.74-7.09-2.88-7.01-3-6.93-3.1-6.85-3.18-6.77-3.25-6.7-3.3-6.64-3.32-6.58-3.33-6.53-3.33-6.49-3.32-6.46-3.28-6.44-3.25-6.41-3.2-6.41-3.16-6.42-3.12-6.41-3.06-6.43-3.03-6.45-2.99-6.46-2.96-6.5-2.93-6.52-2.91-6.55-2.91-6.58-2.9-6.61-2.92-6.64-2.95-6.65-2.98-6.68-3.04-6.68-3.11-6.68-3.18-6.68-3.28-6.65-3.39-6.63-3.5-6.59-3.64-6.55-3.77-6.48-3.91-6.41-4.06-6.34-4.22-6.24-4.38-6.15-4.53-6.06-4.69-5.94-4.85-5.83-5-5.72-5.15-5.6-5.29-5.48-5.44-5.36-5.56-5.25-5.7-5.12-5.82-5-5.94-4.88-6.06-4.77-6.17-4.63-6.27-4.52-6.37-4.39-6.48-4.27-6.57-4.13-6.67-4.01-6.76-3.86-6.86-3.73-6.93-3.59-7.03-3.45-7.1-3.31-7.17-3.16-7.26-3.02-7.32-2.88-7.39-2.72-7.45-2.57-7.51-2.42-7.57-2.26-7.63-2.11-7.68-1.94-7.72-1.79-7.77-1.61-7.81-1.46-7.84-1.28-7.88-1.12-7.91-0.94-7.93-0.78-7.95-0.6-7.97-0.44-7.99-0.26-7.99-0.08-7.99 0.08-7.99 0.23-8 0.34-7.98 0.46-7.98 0.54-7.98 0.62-7.98 0.7-7.97 0.78-7.97 0.84-7.98 0.93-7.97 1-7.97 1.08-7.98 1.19-7.98 1.28-7.97 1.39-7.97 1.51-7.96 1.64-7.95 1.78-7.93 1.92-7.91 2.08-7.89 2.25-7.84 2.41-7.8 2.59-7.76 2.78-7.7 2.96-7.63 3.14-7.57 3.34-7.48 3.52-7.41 3.71-7.31 3.9-7.22 4.08-7.12 4.27-7.01 4.44-6.9 4.61-6.79 4.79-6.66 4.95-6.54 5.11-6.41 5.26-6.29 5.42-6.14 5.55-6.02 5.7-5.87 5.82-5.74 5.96-5.59 6.07-5.46 6.18-5.31 6.28-5.18 6.39-5.03 6.48-4.89 6.57-4.76 6.66-4.62 6.73-4.48 6.8-4.35 6.87-4.21 6.93-4.08 6.99-3.95 7.04-3.83 7.1-3.69 7.14-3.57 7.18-3.45 7.23-3.33 7.26-3.2 7.29-3.09 7.33-2.98 7.36-2.85 7.38-2.75 7.41-2.63 7.44-2.53 7.45-2.41 7.48-2.31 7.5-2.2 7.51-2.09 7.53-1.99 7.55-1.88 7.57-1.77 7.58-1.66 7.59-1.56 7.61-1.45 7.62-1.34 7.63-1.23 7.64-1.12 7.65-1.01 7.66-0.9 7.66-0.79 7.68-0.69 7.68-0.58 7.68-0.46 7.68-0.36 7.69-0.26 7.69-0.14 7.69-0.04 7.69 0.07 7.69 0.21 7.67 0.38 7.67 0.55 7.65 0.76 7.63 0.96 7.59 1.17 7.56 1.38 7.51 1.59 7.46 1.79 7.41 1.98 7.35 2.16 7.29 2.34 7.23 2.48 7.17 2.63 7.11 2.75 7.05 2.86 6.99 2.95 6.95 3.04 6.89 3.1 6.85 3.16 6.82 3.21 6.78 3.24 6.76 3.26 6.75 3.29 6.73 3.3 6.72 3.31 6.73 3.31 6.73 3.32 6.75 3.32 6.76 3.33 6.79 3.32 6.82 3.33 6.86 3.33 6.91 3.33 6.95 3.34 7 3.35 7.05 3.37 7.11 3.4 7.17 3.42 7.23 3.47 7.27 3.52 7.33 3.59 7.36 3.66 7.4 3.75 7.41 3.87 7.41 3.99 7.4 4.12 7.36 4.29 7.31 4.45 7.24 4.64 7.13 4.84 7.01 5.05 6.85 5.27 6.68 5.5 6.47 5.73 6.25 5.97 5.99 6.21 5.72 6.45 5.42 6.68 5.11 6.91 4.78 7.13 4.44 7.34 4.09 7.53 3.73 7.72 3.37 7.88 3 8.03 2.64 8.16 2.27 8.28 1.91 8.39 1.55 8.46 1.22 8.53 0.89 8.57 0.58 8.6 0.3 8.62 0.03 8.6-0.21 8.59-0.42 8.56-0.61 8.52-0.76 8.47-0.9 8.41-1.01 8.34-1.09 8.29-1.17 8.21-1.22 8.15-1.28 8.09-1.33 8.02-1.39 7.97-1.46 7.91z"/><path d="m418.4 0-1.72 7.27-1.83 7.22-1.95 7.15-2.07 7.09-2.19 7.02-2.29 6.96-2.39 6.89-2.46 6.83-2.54 6.76-2.57 6.7-2.61 6.65-2.63 6.6-2.62 6.56-2.6 6.52-2.57 6.5-2.52 6.48-2.47 6.48-2.41 6.48-2.35 6.49-2.27 6.5-2.22 6.54-2.15 6.58-2.09 6.61-2.04 6.66-2.01 6.72-1.98 6.76-1.97 6.82-1.97 6.87-1.99 6.91-2.03 6.97-2.08 7-2.15 7.03-2.23 7.06-2.33 7.07-2.45 7.07-2.58 7.08-2.71 7.06-2.86 7.04-3.01 7.01-3.15 6.98-3.3 6.96-3.44 6.92-3.59 6.88-3.73 6.85-3.87 6.81-4.02 6.76-4.16 6.71-4.32 6.66-4.46 6.59-4.61 6.52-4.77 6.44-4.92 6.36-5.09 6.26-5.25 6.15-5.42 6.01-5.62 5.84-5.82 5.63-6.04 5.4-6.25 5.13-6.47 4.83-6.69 4.51-6.9 4.16-7.1 3.79-7.3 3.41-7.48 3.01-7.64 2.61-7.79 2.19-7.91 1.79-8.02 1.39-8.11 0.99-8.16 0.62-8.21 0.27-8.22-0.06-8.21-0.36-8.2-0.63-8.16-0.87-8.1-1.06-8.03-1.23-7.95-1.35-7.87-1.44-7.78-1.49-7.69-1.52-7.6-1.52-7.51-1.5-7.43-1.46-7.35-1.43-7.29-1.39-7.22-1.37-7.16-1.38-7.11-1.43-7.06-1.53-7-1.66-6.95-1.82-6.89-1.99-6.81-2.16-6.75-2.33-6.67-2.48-6.59-2.62-6.51-2.74-6.44-2.84-6.36-2.91-6.3-2.96-6.23-2.98-6.18-2.98-6.13-2.95-6.1-2.91-6.08-2.85-6.08-2.76-6.07-2.68-6.09-2.59-6.11-2.48-6.15-2.37-6.2-2.28-6.25-2.18-6.32-2.1-6.38-2.02-6.44-1.97-6.52-1.92-6.58-1.9-6.65-1.89-6.71-1.92-6.75-1.95-6.8-2.01-6.83-2.09-6.84-2.19-6.85-2.32-6.83-2.47-6.8-2.63-6.75-2.8-6.7-2.97-6.63-3.16-6.56-3.35-6.47-3.54-6.37-3.73-6.28-3.91-6.16-4.1-6.06-4.28-5.94-4.45-5.84-4.62-5.72-4.77-5.61-4.91-5.51-5.06-5.4-5.19-5.31-5.31-5.21-5.43-5.11-5.54-5.02-5.65-4.93-5.75-4.83-5.86-4.73-5.96-4.63-6.06-4.53-6.16-4.41-6.26-4.3-6.36-4.18-6.45-4.06-6.55-3.92-6.65-3.79-6.74-3.65-6.83-3.5-6.92-3.35-7.01-3.2-7.09-3.05-7.16-2.88-7.24-2.72-7.32-2.56-7.38-2.38-7.44-2.22-7.51-2.05-7.56-1.87-7.61-1.69-7.65-1.52-7.7-1.35-7.74-1.16-7.76-0.99-7.8-0.81-7.82-0.63-7.83-0.45-7.86-0.27-7.86-0.09-7.86 0.09-7.86 0.24-7.87 0.38-7.85 0.52-7.85 0.63-7.83 0.75-7.83 0.86-7.82 0.97-7.8 1.08-7.79 1.19-7.78 1.31-7.76 1.43-7.74 1.55-7.72 1.68-7.7 1.81-7.67 1.95-7.64 2.09-7.6 2.24-7.57 2.4-7.51 2.55-7.47 2.72-7.41 2.9-7.34 3.06-7.28 3.25-7.19 3.43-7.1 3.62-7.02 3.8-6.9 3.99-6.8 4.18-6.69 4.35-6.56 4.54-6.44 4.71-6.3 4.87-6.17 5.04-6.03 5.18-5.89 5.32-5.76 5.45-5.61 5.56-5.49 5.68-5.35 5.77-5.21 5.88-5.08 5.96-4.96 6.04-4.82 6.12-4.69 6.19-4.57 6.26-4.44 6.31-4.32 6.37-4.2 6.42-4.08 6.47-3.96 6.5-3.85 6.55-3.74 6.58-3.63 6.61-3.52 6.64-3.42 6.67-3.32 6.69-3.22 6.7-3.14 6.72-3.05 6.73-2.97 6.74-2.89 6.75-2.81 6.77-2.74 6.78-2.66 6.79-2.59 6.81-2.5 6.82-2.43 6.84-2.34 6.87-2.24 6.88-2.15 6.91-2.05 6.93-1.93 6.95-1.83 6.98-1.71 7-1.58 7.02-1.46 7.05-1.33 7.05-1.21 7.08-1.08 7.08-0.95 7.09-0.83 7.1-0.71 7.11-0.59 7.1-0.48 7.11-0.37 7.11-0.27 7.1-0.16 7.1-0.06 7.09 0.04 7.09 0.14 7.08 0.25 7.07 0.39 7.06 0.56 7.04 0.76 7.01 0.96 6.98 1.17 6.93 1.38 6.89 1.59 6.83 1.8 6.78 1.98 6.71 2.16 6.65 2.32 6.59 2.45 6.52 2.58 6.46 2.68 6.41 2.75 6.36 2.81 6.31 2.86 6.28 2.87 6.25 2.88 6.24 2.86 6.23 2.84 6.23 2.81 6.25 2.76 6.27 2.72 6.3 2.66 6.34 2.62 6.39 2.56 6.44 2.53 6.5 2.49 6.55 2.47 6.62 2.45 6.67 2.46 6.73 2.47 6.78 2.5 6.84 2.54 6.88 2.59 6.93 2.65 6.97 2.71 7.03 2.77 7.07 2.84 7.13 2.92 7.18 3 7.23 3.08 7.27 3.17 7.3 3.28 7.34 3.4 7.34 3.53 7.35 3.68 7.32 3.83 7.29 4 7.23 4.2 7.15 4.38 7.04 4.6 6.91 4.81 6.77 5.04 6.58 5.28 6.36 5.51 6.11 5.77 5.83 6.03 5.5 6.28 5.14 6.55 4.75 6.81 4.33 7.05 3.89 7.29 3.42 7.52 2.94 7.72 2.45 7.91 1.97 8.07 1.48 8.2 1.02 8.32 0.57 8.39 0.15 8.45-0.24 8.48-0.59 8.47-0.9 8.46-1.17 8.41-1.38 8.35-1.55 8.27-1.67 8.18-1.76 8.09-1.79 7.99-1.79 7.89-1.77 7.78-1.73 7.7-1.67 7.6-1.62 7.53-1.58 7.46-1.58 7.39z"/></g><path d="m174.85 285.73c-0.423-0.6842 0.94815-2.0239 2.0714-2.0239 11.754 0 17.823-10.032 41.125-67.98 2.4143-6.0038 2.614-5.515-3.7949-9.2869-22.562-13.278-22.286-13.497-22.647 17.924-0.15018 13.067-0.44675 23.931-0.65906 24.143-0.85738 0.85584-1.9378-0.33345-2.2871-2.5174-1.1525-7.2072-6.478-8.1561-16.004-2.8517-38.002 21.16-85.448 2.1449-95.668-38.341-15.612-61.845 34.285-107.77 93.21-85.784 8.4668 3.1587 11.671 3.3503 14.499 0.86702 3.7454-3.2885 3.633-3.8213 3.633 17.219 0 16.492-0.10568 18.898-0.8427 19.181-1.1844 0.45449-1.2657 0.29937-2.4559-4.684-9.5901-40.152-60.197-48.388-81.003-13.182-16.552 28.007-13.566 73.926 6.2818 96.615 19.291 22.052 58.043 17.479 62.472-7.3731 1.8704-10.494 0.80605-29.857-1.8399-33.473-6.0816-8.3108-26.773-2.0271-36.303 11.025-2.7745 3.7999-3.4541 4.2844-4.0032 2.8535-0.75835-1.9762 7.0937-10.858 13.223-14.958 18.264-12.216 45.742-9.583 73.335 7.0259 3.111 1.8726 5.8577 3.1978 6.1037 2.9448s3.3202-7.4635 6.8315-16.023c5.5547-13.542 14.636-35.263 17.767-42.496 1.5321-3.5396 3.5412-3.1545 5.1815 0.99329 1.937 4.8981 12.329 29.458 25.389 60.003 12.23 28.603 12.23 28.603 16.065 28.306 8.4257-0.65106 18.63-5.9286 24.792-12.823 3.1865-3.5648 4.6894-4.2259 3.4567-1.5205-2.0294 4.4541-11.513 12.339-18.241 15.165-20.953 8.8036-40.343 3.9528-75.369-18.856-3.5173-2.2904-6.5039-3.9879-6.637-3.7722s-1.951 4.6927-4.0398 9.9488c-2.0888 5.2561-6.1822 15.412-9.0965 22.57-11.159 27.406-9.7535 37.645 5.368 39.093 2.8493 0.27285 3.3254 0.47407 3.3254 1.4053 0 1.142-42.541 1.7952-43.24 0.66401zm93.208-56.285c0-0.10887-0.75671-2.0134-1.6816-4.2322-1.5493-3.7169-14.479-35.599-18.025-44.445-6.4937-16.201-6.0481-15.785-9.0753-8.4644-9.9835 24.144-13.267 32.227-13.267 32.657 0 0.54304 19.102 13.235 25.666 17.053 5.8775 3.4188 16.383 8.1845 16.383 7.4321zm3.2766 55.933c0-0.84651 0.51991-1.1336 2.5939-1.4324 7.186-1.0354 11.019-5.0388 11.046-11.538 0.0139-3.298-1.0613-6.4679-6.8063-20.065-4.782-11.318-4.8638-10.39 0.84231-9.5557 4.1978 0.6138 12.266 0.44984 14.187-0.28829 0.65209-0.25063 1.7375 1.7156 4.879 8.8382 11.285 25.587 14.161 29.329 24.589 31.998 3.0043 0.76884 4.0112 1.7562 2.6624 2.6107-1.7822 1.129-53.993 0.58029-53.993-0.56743z" stroke-width=".54609"/>
</svg>
