<?xml version="1.0" encoding="UTF-8" standalone="no"?>
<svg
   viewBox="0 0 400 400"
   width="400"
   height="400"
   version="1.1"
   id="svg17"
   xml:space="preserve"
   xmlns="http://www.w3.org/2000/svg"
   xmlns:svg="http://www.w3.org/2000/svg"
>
    <path
     style="fill:#000000;stroke-width:0.86742"
     d="m 160.04576,336.17888 c -0.67189,-1.08679 1.50606,-3.21483 3.29025,-3.21483 18.66954,0 28.30983,-15.93554 65.32381,-107.9812 3.83487,-9.53649 4.15209,-8.76019 -6.02788,-14.75142 -35.83736,-21.09142 -35.39892,-21.43843 -35.97251,28.47039 -0.23854,20.75567 -0.70962,38.013 -1.04686,38.34963 -1.36187,1.35943 -3.0781,-0.52965 -3.63282,-3.99871 -1.8306,-11.44795 -10.28979,-12.95522 -25.4216,-4.52964 C 96.195678,302.13366 20.831656,271.93006 4.5974872,207.6219 -20.201576,109.38573 59.056364,36.442237 152.65404,71.360927 c 13.44875,5.01736 18.53762,5.32167 23.03012,1.37719 5.94932,-5.22356 5.77076,-6.06988 5.77076,27.350953 0,26.19695 -0.16786,30.01762 -1.33855,30.46685 -1.88127,0.72192 -2.01047,0.47553 -3.90105,-7.44006 C 160.98229,59.337557 80.598109,46.255827 47.549347,102.17675 c -26.291251,44.48672 -21.548815,117.42558 9.97819,153.46485 30.642565,35.02825 92.196183,27.76359 99.231733,-11.7115 2.97089,-16.66911 1.28034,-47.4259 -2.92246,-53.16929 -9.66004,-13.20103 -42.52712,-3.21985 -57.664196,17.51165 -4.407083,6.03586 -5.486578,6.80532 -6.358751,4.53247 -1.204577,-3.13909 11.267787,-17.24779 21.004227,-23.75991 29.01053,-19.40343 72.65811,-15.22176 116.48679,11.16005 4.94154,2.97446 9.30441,5.07939 9.69528,4.67763 0.39086,-0.40176 5.27392,-11.85514 10.85124,-25.45195 8.82317,-21.50978 23.24821,-56.01307 28.2209,-67.50166 2.43356,-5.62236 5.62484,-5.01059 8.23031,1.57776 3.07683,7.78027 19.58397,46.79229 40.32833,95.30962 19.42559,45.43298 19.42559,45.43298 25.51733,44.96227 13.38351,-1.03414 29.59174,-9.41716 39.38015,-20.3677 5.06147,-5.6624 7.44867,-6.71243 5.49069,-2.41512 -3.22355,7.07492 -18.2873,19.59911 -28.9736,24.08903 -33.28258,13.98385 -64.08162,6.27864 -119.71681,-29.9504 -5.5869,-3.63814 -10.33096,-6.33444 -10.54234,-5.99178 -0.21137,0.34265 -3.09897,7.45393 -6.41688,15.80285 -3.3179,8.34892 -9.81997,24.48133 -14.44904,35.84981 -17.7258,43.53259 -15.49256,59.79646 8.52664,62.09651 4.52588,0.4334 5.28221,0.75301 5.28221,2.23221 0,1.81393 -67.57263,2.85159 -68.68353,1.05473 z M 308.0982,246.77509 c 0,-0.17293 -1.20198,-3.19805 -2.67107,-6.7225 -2.46097,-5.90405 -22.9991,-56.54586 -28.63115,-70.59716 -10.31466,-25.73387 -9.60695,-25.07379 -14.41538,-13.44501 -15.85789,38.35107 -21.07372,51.18975 -21.07372,51.87261 0,0.86258 30.3422,21.02192 40.76873,27.08672 9.33593,5.43044 26.02259,13.00046 26.02259,11.80534 z m 5.20452,88.84437 c 0,-1.34462 0.82583,-1.80068 4.12024,-2.27534 11.41435,-1.64459 17.50252,-8.00379 17.54621,-18.32733 0.0221,-5.23858 -1.68583,-10.27367 -10.81123,-31.87121 -7.59577,-17.97729 -7.72566,-16.50375 1.33793,-15.17848 6.66785,0.97497 19.48419,0.71453 22.53466,-0.45792 1.03579,-0.39811 2.75988,2.72506 7.7498,14.03876 17.92551,40.64267 22.49349,46.58714 39.05684,50.82601 4.77201,1.22124 6.37148,2.78964 4.22897,4.14682 -2.83095,1.79329 -85.76342,0.92174 -85.76342,-0.90131 z" />
</svg>
